<?xml version="1.0" encoding="UTF-8" standalone="no"?>
<!-- Created with Inkscape (http://www.inkscape.org/) -->

<svg
   xmlns:dc="http://purl.org/dc/elements/1.1/"
   xmlns:cc="http://creativecommons.org/ns#"
   xmlns:rdf="http://www.w3.org/1999/02/22-rdf-syntax-ns#"
   xmlns:svg="http://www.w3.org/2000/svg"
   xmlns="http://www.w3.org/2000/svg"
   xmlns:sodipodi="http://sodipodi.sourceforge.net/DTD/sodipodi-0.dtd"
   xmlns:inkscape="http://www.inkscape.org/namespaces/inkscape"
   width="50mm"
   height="50mm"
   viewBox="0 0 50 50"
   version="1.1"
   id="svg5747"
   inkscape:version="0.92.2 2405546, 2018-03-11"
   sodipodi:docname="signature.svg">
  <defs
     id="defs5741" />
  <sodipodi:namedview
     id="base"
     pagecolor="#ffffff"
     bordercolor="#666666"
     borderopacity="1.0"
     inkscape:pageopacity="0.0"
     inkscape:pageshadow="2"
     inkscape:zoom="2.8"
     inkscape:cx="77.21648"
     inkscape:cy="116.69759"
     inkscape:document-units="mm"
     inkscape:current-layer="layer1"
     showgrid="false"
     inkscape:window-width="1920"
     inkscape:window-height="1016"
     inkscape:window-x="1920"
     inkscape:window-y="27"
     inkscape:window-maximized="1" />
  <metadata
     id="metadata5744">
    <rdf:RDF>
      <cc:Work
         rdf:about="">
        <dc:format>image/svg+xml</dc:format>
        <dc:type
           rdf:resource="http://purl.org/dc/dcmitype/StillImage" />
        <dc:title />
      </cc:Work>
    </rdf:RDF>
  </metadata>
  <g
     inkscape:label="Layer 1"
     inkscape:groupmode="layer"
     id="layer1"
     transform="translate(0,-247)">
    <path
       style="opacity:0.66300001;fill:#ff0000;fill-opacity:1;stroke:none;stroke-width:1.430004"
       d="M 137.40234,2.7441406 C 121.39976,7.2282477 106.70176,15.573695 92.255859,23.667969 82.408913,29.041021 73.060459,35.281951 63.035156,40.324219 57.202771,45.604068 49.46681,49.07242 43.048828,53.888672 30.8886,62.676716 18.887956,71.715254 6.8261719,80.619141 13.237443,77.853925 20.062039,75.877375 26.191406,72.574219 36.675877,64.016764 47.663108,55.996744 58.582031,47.972656 c 7.324951,-6.569726 5.222327,9.51367 7.427735,14.367188 2.210403,18.832478 5.518859,37.528205 6.529296,56.488276 1.330534,7.66084 -9.839277,-1.37025 -13.949218,-2.38671 -10.577473,-5.2944 -20.829665,-11.66164 -29.275391,-20.013676 -4.438658,3.828016 -14.611833,6.643286 -15.292969,11.134766 16.212132,13.23916 35.038708,23.88353 55.416016,29.12305 7.292341,0.22904 14.764713,-4.11145 20.535156,-8.05274 0.414339,-12.68957 -2.284559,-25.21914 -3.220703,-37.843748 -2.475825,-17.98919 -4.253514,-36.057708 -7.234375,-53.976562 4.180865,-2.82717 6.844342,-3.552408 11.884766,-6.361328 3.773197,19.467439 7.131145,39.009245 9.378906,58.722656 2.8528,20.605452 7.68793,41.004922 9.2793,61.720702 4.17644,8.12886 16.17117,0.21547 17.74804,-6.48828 8.03218,-18.99829 20.75474,-35.60561 31.89258,-52.876953 5.51603,-7.767572 12.13664,-14.961426 20.37695,-19.880859 -9.56644,3.936831 -20.30771,6.356378 -27.13476,14.769531 -10.813,11.663886 -17.77036,26.217681 -27.98047,38.376951 -2.94384,-4.32956 -3.80285,-18.25871 -5.99219,-26.269529 -3.93289,-24.492133 -5.81955,-49.274865 -10.26758,-73.691407 -0.25122,-1.795371 -0.44263,-3.60103 -0.53124,-5.412109 4.88974,-2.040373 9.85863,-3.882334 14.75,-5.716797 4.82658,-3.653594 9.65388,-7.3073059 14.48046,-10.9609374 z"
       transform="matrix(0.26458333,0,0,0.26458333,0,247)"
       id="path6294"
       inkscape:connector-curvature="0"
       sodipodi:nodetypes="ccccccccccccccccccccccccccccc" />
  </g>
</svg>
